<svg width="170" height="342" viewBox="0 0 170 342" fill="none" xmlns="http://www.w3.org/2000/svg">
<g opacity="0.6">
<path d="M159.396 245.427L159.396 146.161L184.616 146.161L184.616 245.427L159.396 245.427Z" fill="url(#paint0_linear_6484_9150)"/>
<path d="M64.386 336.575L30.2646 312.595L64.386 288.615L64.386 336.575Z" fill="url(#paint1_linear_6484_9150)"/>
<path d="M78.3577 146.037L58.5154 132.033L78.3577 118.092L78.3577 146.037Z" fill="url(#paint2_linear_6484_9150)"/>
<path d="M139.614 208.682L139.614 248.524L179.36 248.524L179.36 208.682L139.614 208.682Z" fill="url(#paint3_linear_6484_9150)"/>
<path d="M155.685 208.682L179.36 208.682L179.36 248.524L156.551 248.524C155.809 247.967 155.129 247.347 154.449 246.666C144.311 236.503 144.311 220.021 154.449 209.859C154.882 209.425 155.314 209.054 155.685 208.682Z" fill="url(#paint4_linear_6484_9150)"/>
<path d="M179.361 208.682L179.361 248.524C174.293 248.524 169.162 246.604 165.329 242.7C157.603 234.954 157.603 222.314 165.329 214.506C169.162 210.603 174.293 208.682 179.361 208.682Z" fill="url(#paint5_linear_6484_9150)"/>
<path d="M139.616 316.685L99.8698 316.685L99.8697 248.525L139.616 248.525L139.616 316.685Z" fill="url(#paint6_linear_6484_9150)"/>
<path d="M139.616 288.306L99.8698 288.306L99.8697 248.525L139.616 248.525L139.616 288.306Z" fill="url(#paint7_linear_6484_9150)"/>
<path d="M139.616 208.682L139.616 248.524L99.8698 248.524C99.8698 248.524 100.241 209.301 137.885 208.682L139.616 208.682Z" fill="url(#paint8_linear_6484_9150)"/>
<path d="M179.298 288.306L139.613 288.306L139.613 248.525L179.298 248.525L179.298 288.306Z" fill="url(#paint9_linear_6484_9150)"/>
<path d="M99.8698 316.685L119.712 288.305L139.616 316.685L99.8698 316.685Z" fill="url(#paint10_linear_6484_9150)"/>
<path d="M179.297 288.305L179.297 302.495C179.297 310.178 173.178 316.499 165.513 316.685L139.551 316.685L139.551 288.305L179.297 288.305Z" fill="url(#paint11_linear_6484_9150)"/>
<path d="M97.5187 288.305L97.5187 248.524L100.609 248.524L100.609 288.305L97.5187 288.305Z" fill="url(#paint12_linear_6484_9150)"/>
<path d="M90.9066 288.305L90.9066 248.524L93.9973 248.524L93.9973 288.305L90.9066 288.305Z" fill="url(#paint13_linear_6484_9150)"/>
<path d="M84.2275 288.305L84.2275 248.524L87.3801 248.524L87.3801 288.305L84.2275 288.305Z" fill="url(#paint14_linear_6484_9150)"/>
<path d="M77.6155 288.305L77.6155 248.524L80.768 248.524L80.768 288.305L77.6155 288.305Z" fill="url(#paint15_linear_6484_9150)"/>
<path d="M70.999 288.305L70.999 248.524L74.0897 248.524L74.0897 288.305L70.999 288.305Z" fill="url(#paint16_linear_6484_9150)"/>
<path d="M64.387 288.304L64.387 248.523L67.4777 248.523L67.4777 288.304L64.387 288.304Z" fill="url(#paint17_linear_6484_9150)"/>
<path d="M139.614 338.743L184.614 338.743L184.614 341.903L139.614 341.903L139.614 338.743Z" fill="url(#paint18_linear_6484_9150)"/>
<path d="M139.614 332.113L184.614 332.113L184.614 335.273L139.614 335.273L139.614 332.113Z" fill="url(#paint19_linear_6484_9150)"/>
<path d="M139.614 325.484L184.614 325.484L184.614 328.582L139.614 328.582L139.614 325.484Z" fill="url(#paint20_linear_6484_9150)"/>
<path d="M139.614 318.853L184.614 318.853L184.614 321.951L139.614 321.951L139.614 318.853Z" fill="url(#paint21_linear_6484_9150)"/>
<path d="M145.242 285.331C145.242 283.859 144.052 282.666 142.584 282.666C141.116 282.666 139.926 283.859 139.926 285.331C139.926 286.802 141.116 287.995 142.584 287.995C144.052 287.995 145.242 286.802 145.242 285.331Z" fill="url(#paint22_linear_6484_9150)"/>
<path d="M148.086 281.675C148.086 282.728 147.221 283.596 146.17 283.596C145.119 283.596 144.254 282.728 144.254 281.675C144.254 280.621 145.119 279.754 146.17 279.754C147.221 279.754 148.086 280.621 148.086 281.675Z" fill="url(#paint23_linear_6484_9150)"/>
<path d="M150.247 278.825C150.247 278.174 149.722 277.647 149.073 277.647C148.424 277.647 147.899 278.174 147.899 278.825C147.899 279.475 148.424 280.002 149.073 280.002C149.722 280.002 150.247 279.475 150.247 278.825Z" fill="url(#paint24_linear_6484_9150)"/>
<path d="M151.916 276.717C151.916 277.151 151.607 277.461 151.174 277.461C150.742 277.461 150.433 277.151 150.433 276.717C150.433 276.284 150.742 275.974 151.174 275.974C151.545 275.974 151.916 276.284 151.916 276.717Z" fill="url(#paint25_linear_6484_9150)"/>
<path d="M171.015 258.005C171.015 257.355 170.489 256.828 169.84 256.828C169.192 256.828 168.666 257.355 168.666 258.005C168.666 258.656 169.192 259.183 169.84 259.183C170.489 259.183 171.015 258.656 171.015 258.005Z" fill="url(#paint26_linear_6484_9150)"/>
<path d="M166.997 260.112C166.997 259.678 167.306 259.368 167.739 259.368C168.172 259.368 168.481 259.678 168.481 260.112C168.481 260.546 168.172 260.855 167.739 260.855C167.306 260.855 166.997 260.484 166.997 260.112Z" fill="url(#paint27_linear_6484_9150)"/>
<path d="M145.242 251.5C145.242 250.012 144.067 248.835 142.584 248.835C141.1 248.835 139.926 250.012 139.926 251.5C139.926 252.987 141.1 254.164 142.584 254.164C144.067 254.164 145.242 252.925 145.242 251.5Z" fill="url(#paint28_linear_6484_9150)"/>
<path d="M148.148 255.093C148.148 254.039 147.283 253.172 146.232 253.172C145.181 253.172 144.316 254.039 144.316 255.093C144.316 256.146 145.181 257.014 146.232 257.014C147.283 257.014 148.148 256.208 148.148 255.093Z" fill="url(#paint29_linear_6484_9150)"/>
<path d="M150.247 258.005C150.247 257.355 149.722 256.828 149.073 256.828C148.424 256.828 147.899 257.355 147.899 258.005C147.899 258.656 148.424 259.183 149.073 259.183C149.722 259.183 150.247 258.656 150.247 258.005Z" fill="url(#paint30_linear_6484_9150)"/>
<path d="M151.916 260.112C151.916 259.678 151.607 259.368 151.174 259.368C150.742 259.368 150.433 259.678 150.433 260.112C150.433 260.546 150.742 260.855 151.174 260.855C151.607 260.855 151.916 260.484 151.916 260.112Z" fill="url(#paint31_linear_6484_9150)"/>
<path d="M169.84 277.647C170.458 277.647 171.015 278.143 171.015 278.825C171.015 279.506 170.52 280.002 169.84 280.002C169.222 280.002 168.666 279.506 168.666 278.825C168.666 278.143 169.16 277.647 169.84 277.647Z" fill="url(#paint32_linear_6484_9150)"/>
<path d="M167.739 275.974C168.172 275.974 168.481 276.284 168.481 276.717C168.481 277.151 168.172 277.461 167.739 277.461C167.306 277.461 166.997 277.151 166.997 276.717C166.997 276.284 167.306 275.974 167.739 275.974Z" fill="url(#paint33_linear_6484_9150)"/>
<path d="M110.006 279.94L93.6255 268.415L110.006 256.89L110.006 279.94Z" fill="url(#paint34_linear_6484_9150)"/>
<path d="M125.77 276.595L114.149 268.416L125.77 260.236L125.77 276.595Z" fill="url(#paint35_linear_6484_9150)"/>
<path d="M90.5987 275.975L79.7812 268.415L90.5987 260.856L90.5987 275.975Z" fill="url(#paint36_linear_6484_9150)"/>
<path d="M139.615 228.573L139.615 248.463L119.34 248.463C119.34 243.382 121.256 238.239 125.151 234.397C129.169 230.432 134.423 228.449 139.615 228.573Z" fill="url(#paint37_linear_6484_9150)"/>
<path d="M139.616 208.682L139.616 228.573C134.424 228.449 129.17 230.431 125.152 234.397C121.257 238.301 119.341 243.382 119.341 248.463L99.8698 248.463C99.8698 248.463 100.241 209.24 137.885 208.62L139.616 208.62L139.616 208.682Z" fill="url(#paint38_linear_6484_9150)"/>
<path d="M99.8697 316.685L139.616 316.685L139.616 356.527C139.616 356.527 100.488 356.156 99.8697 318.42L99.8697 316.685Z" fill="url(#paint39_linear_6484_9150)"/>
<path d="M80.0257 336.203L99.8681 336.203L99.8681 356.527C94.7993 356.527 89.6687 354.606 85.8363 350.703C81.8801 346.675 79.9021 341.47 80.0257 336.203Z" fill="url(#paint40_linear_6484_9150)"/>
<path d="M99.8691 316.685L119.711 316.685C119.588 321.89 121.566 327.157 125.522 331.184C129.416 335.088 134.485 337.009 139.554 337.009L139.554 356.527C139.554 356.527 100.425 356.156 99.8072 318.42L99.8072 316.685L99.8691 316.685Z" fill="url(#paint41_linear_6484_9150)"/>
<path d="M179.36 216.862L179.36 240.284C172.931 240.284 167.677 235.017 167.677 228.573C167.677 222.129 172.869 216.862 179.36 216.862Z" fill="url(#paint42_linear_6484_9150)"/>
<path d="M169.099 268.415C169.099 263.076 164.781 258.748 159.456 258.748C154.13 258.748 149.813 263.076 149.813 268.415C149.813 273.753 154.13 278.081 159.456 278.081C164.781 278.081 169.099 273.753 169.099 268.415Z" fill="url(#paint43_linear_6484_9150)"/>
<path d="M162.858 268.415C162.858 270.274 161.375 271.823 159.459 271.823C157.604 271.823 156.059 270.336 156.059 268.415C156.059 266.556 157.542 265.007 159.459 265.007C161.313 265.007 162.858 266.556 162.858 268.415Z" fill="url(#paint44_linear_6484_9150)"/>
<path d="M94.2456 218.968C94.2456 214.314 90.4818 210.541 85.8389 210.541C81.1959 210.541 77.4321 214.314 77.4321 218.968C77.4321 223.623 81.1959 227.396 85.8389 227.396C90.4818 227.396 94.2456 223.623 94.2456 218.968Z" stroke="#733E5E" stroke-width="2.0258" stroke-miterlimit="10"/>
<path d="M68.0354 219.092C68.0354 217.073 66.4026 215.436 64.3884 215.436C62.3742 215.436 60.7413 217.073 60.7413 219.092C60.7413 221.111 62.3742 222.748 64.3884 222.748C66.4026 222.748 68.0354 221.111 68.0354 219.092Z" stroke="#EDBB00" stroke-width="2.0258" stroke-miterlimit="10"/>
<path d="M92.3911 95.9092L80.77 87.73L92.3911 79.5508L92.3911 95.9092Z" fill="url(#paint45_linear_6484_9150)"/>
<path d="M68.4687 93.4307L60.3092 87.73L68.4687 82.0294L68.4687 93.4307Z" fill="url(#paint46_linear_6484_9150)"/>
<path d="M96.2227 27.5L56.4762 27.5L56.4762 -12.3425C56.4762 -12.3425 95.6045 -11.9708 96.2227 25.765L96.2227 27.5Z" fill="url(#paint47_linear_6484_9150)"/>
<path d="M76.3804 27.5L56.4762 27.5L56.4762 7.17597C61.545 7.17597 66.6755 9.09682 70.508 13.0005C74.5259 17.0281 76.4422 22.2951 76.3804 27.5Z" fill="url(#paint48_linear_6484_9150)"/>
<path d="M96.2227 27.5L76.3185 27.5C76.4422 22.2951 74.4641 17.0282 70.508 13.0005C66.6137 9.09682 61.545 7.17598 56.4762 7.17598L56.4762 -12.3425C56.4762 -12.3425 95.6045 -11.9088 96.2227 25.765L96.2227 27.5Z" fill="url(#paint49_linear_6484_9150)"/>
<path d="M89.4238 27.5L76.381 27.5C76.5046 22.2951 74.5266 17.0281 70.5705 13.0005C66.6762 9.09682 61.6075 7.17597 56.5387 7.17597L56.5387 -4.28728C66.3671 -2.80015 88.8675 2.65263 89.4238 27.5Z" fill="url(#paint50_linear_6484_9150)"/>
<path d="M96.2227 27.5002L56.4762 27.5002L56.4762 67.3428C56.4762 67.3428 95.6045 66.971 96.2227 29.2352L96.2227 27.5002Z" fill="url(#paint51_linear_6484_9150)"/>
<path d="M76.3804 27.5002L56.4762 27.5002L56.4762 47.8242C61.545 47.8242 66.6755 45.9034 70.508 41.9996C74.5259 38.034 76.4422 32.7671 76.3804 27.5002Z" fill="url(#paint52_linear_6484_9150)"/>
<path d="M96.2227 27.5002L76.3185 27.5002C76.4422 32.7051 74.4641 37.972 70.508 41.9997C66.6137 45.9034 61.545 47.8242 56.4762 47.8242L56.4762 67.3428C56.4762 67.3428 95.6045 66.909 96.2227 29.2352L96.2227 27.5002Z" fill="url(#paint53_linear_6484_9150)"/>
<path d="M89.4238 27.4998L76.381 27.4998C76.5047 32.7047 74.5266 37.9716 70.5705 41.9993C66.6762 45.903 61.6075 47.8238 56.5387 47.8238L56.5387 59.2871C66.3671 57.8 89.4238 51.2319 89.4238 27.4998Z" fill="url(#paint54_linear_6484_9150)"/>
<path d="M139.619 -12.2801L139.619 27.5625L179.365 27.5625L179.365 -12.2801L139.619 -12.2801Z" fill="url(#paint55_linear_6484_9150)"/>
<path d="M139.619 -12.2806L179.366 -12.2806L179.366 27.5C179.366 27.5 140.237 27.1282 139.619 -10.5456L139.619 -12.2806Z" fill="url(#paint56_linear_6484_9150)"/>
<path d="M159.461 -12.2796L179.365 -12.2796L179.365 7.98242C174.296 7.98242 169.166 6.06154 165.333 2.15784C161.315 -1.80782 159.337 -7.07471 159.461 -12.2796Z" fill="url(#paint57_linear_6484_9150)"/>
<path d="M139.619 -12.2806L159.523 -12.2806C159.4 -7.07567 161.378 -1.80875 165.334 2.21888C169.228 6.12258 174.297 8.04343 179.366 8.04343L179.366 27.5C179.366 27.5 140.237 27.0662 139.619 -10.5456L139.619 -12.2806Z" fill="url(#paint58_linear_6484_9150)"/>
<path d="M146.419 -12.2801L159.461 -12.2801C159.338 -7.07512 161.316 -1.8082 165.272 2.21944C169.166 6.12314 174.235 8.04399 179.304 8.04399L179.304 19.4453C169.475 17.9582 146.975 12.5054 146.419 -12.2801Z" fill="url(#paint59_linear_6484_9150)"/>
<path d="M119.71 67.4059L139.552 67.4059L139.552 87.668C134.483 87.668 129.415 85.7471 125.52 81.8434C121.564 77.9397 119.586 72.6728 119.71 67.4059Z" fill="#F7EDF6"/>
<path d="M99.8683 67.4054L119.711 67.4054C119.587 72.6103 121.565 77.8772 125.521 81.8429C129.415 85.7466 134.484 87.6675 139.553 87.6675L139.553 107.124C139.553 107.124 100.486 106.752 99.8683 69.0784L99.8683 67.4054Z" fill="url(#paint60_linear_6484_9150)"/>
<path d="M125.9 0.485331C125.9 0.177344 125.651 -0.0723436 125.344 -0.0723436C125.036 -0.0723436 124.787 0.177344 124.787 0.485331C124.787 0.793319 125.036 1.04297 125.344 1.04297C125.651 1.04297 125.9 0.793319 125.9 0.485331Z" fill="url(#paint61_linear_6484_9150)"/>
<path d="M123.676 1.8489C123.676 1.66301 123.8 1.47714 124.047 1.47714C124.233 1.47714 124.418 1.60105 124.418 1.8489C124.418 2.03479 124.295 2.2207 124.047 2.2207C123.8 2.15874 123.676 2.03479 123.676 1.8489Z" fill="url(#paint62_linear_6484_9150)"/>
<path d="M128.374 18.145C128.374 18.8266 128.931 19.3223 129.549 19.3223C130.167 19.3223 130.723 18.7646 130.723 18.145C130.723 17.4634 130.167 16.9677 129.549 16.9677C128.931 16.9677 128.374 17.4634 128.374 18.145Z" fill="url(#paint63_linear_6484_9150)"/>
<path d="M126.335 15.7897C126.335 16.2854 126.706 16.6572 127.201 16.6572C127.695 16.6572 128.066 16.2854 128.066 15.7897C128.066 15.294 127.695 14.9223 127.201 14.9223C126.706 14.9223 126.335 15.294 126.335 15.7897Z" fill="url(#paint64_linear_6484_9150)"/>
<path d="M125.9 13.9316C125.9 13.6236 125.651 13.3739 125.344 13.3739C125.036 13.3739 124.787 13.6236 124.787 13.9316C124.787 14.2396 125.036 14.4893 125.344 14.4893C125.651 14.4893 125.9 14.2396 125.9 13.9316Z" fill="url(#paint65_linear_6484_9150)"/>
<path d="M123.676 12.5687C123.676 12.7546 123.8 12.9404 124.047 12.9404C124.233 12.9404 124.418 12.8165 124.418 12.5687C124.418 12.3828 124.295 12.1969 124.047 12.1969C123.8 12.1969 123.676 12.3828 123.676 12.5687Z" fill="url(#paint66_linear_6484_9150)"/>
<path d="M112.365 0.485331C112.365 0.17552 112.118 -0.0723436 111.809 -0.0723436C111.5 -0.0723436 111.252 0.17552 111.252 0.485331C111.252 0.795143 111.5 1.04297 111.809 1.04297C112.118 0.981006 112.365 0.73318 112.365 0.485331Z" fill="url(#paint67_linear_6484_9150)"/>
<path d="M113.538 1.8489C113.538 1.66301 113.414 1.47714 113.167 1.47714C112.982 1.47714 112.796 1.60105 112.796 1.8489C112.796 2.03479 112.92 2.2207 113.167 2.2207C113.352 2.15874 113.538 2.03479 113.538 1.8489Z" fill="url(#paint68_linear_6484_9150)"/>
<path d="M108.841 18.145C108.841 18.8266 108.285 19.3223 107.666 19.3223C106.986 19.3223 106.492 18.7646 106.492 18.145C106.492 17.4634 107.048 16.9677 107.666 16.9677C108.285 16.9057 108.841 17.4634 108.841 18.145Z" fill="url(#paint69_linear_6484_9150)"/>
<path d="M110.819 15.7907C110.819 16.2864 110.449 16.6582 109.954 16.6582C109.46 16.6582 109.089 16.2864 109.089 15.7907C109.089 15.295 109.46 14.9232 109.954 14.9232C110.449 14.9232 110.819 15.295 110.819 15.7907Z" fill="url(#paint70_linear_6484_9150)"/>
<path d="M112.365 13.9316C112.365 14.2414 112.118 14.4893 111.809 14.4893C111.5 14.4893 111.252 14.2414 111.252 13.9316C111.252 13.6218 111.5 13.3739 111.809 13.3739C112.118 13.3739 112.365 13.6218 112.365 13.9316Z" fill="url(#paint71_linear_6484_9150)"/>
<path d="M113.538 12.5687C113.538 12.7546 113.414 12.9404 113.167 12.9404C112.982 12.9404 112.796 12.8165 112.796 12.5687C112.796 12.3828 112.92 12.1969 113.167 12.1969C113.352 12.1969 113.538 12.3828 113.538 12.5687Z" fill="url(#paint72_linear_6484_9150)"/>
<path d="M120.825 7.23947C120.825 8.47875 119.836 9.4082 118.661 9.4082C117.425 9.4082 116.498 8.41678 116.498 7.23947C116.498 6.06216 117.487 5.07074 118.661 5.07074C119.836 5.00878 120.825 6.0002 120.825 7.23947Z" fill="url(#paint73_linear_6484_9150)"/>
<path d="M102.775 128.316L102.775 125.899C102.775 119.083 107.967 113.073 115.879 109.541C115.941 109.479 116.065 109.479 116.127 109.479C117.363 109.045 118.599 108.673 119.897 108.426C122.803 107.744 125.955 107.31 129.231 107.31L184.617 107.31L184.617 147.091L142.212 147.091C132.817 147.091 125.523 146.781 119.897 145.975C118.599 145.666 117.301 145.294 116.127 144.922C116.065 144.922 115.941 144.86 115.879 144.86C107.967 141.142 102.775 135.132 102.775 128.316Z" fill="url(#paint74_linear_6484_9150)"/>
<path d="M127.68 126.6L133.1 132.033L138.52 126.6L133.1 121.167L127.68 126.6Z" fill="#F7EDF6"/>
<path d="M120.153 126.656L123.387 129.898L126.622 126.656L123.387 123.414L120.153 126.656Z" fill="#F7EDF6"/>
<path d="M114.13 126.608L116.271 128.755L118.413 126.608L116.271 124.461L114.13 126.608Z" fill="#F7EDF6"/>
<path d="M99.8059 27.5002L99.8059 67.3428L139.552 67.3428L139.552 27.5002L99.8059 27.5002Z" fill="url(#paint75_linear_6484_9150)"/>
<path d="M121.877 47.4534C121.877 46.2556 120.908 45.2846 119.713 45.2846C118.518 45.2846 117.55 46.2556 117.55 47.4534C117.55 48.6511 118.518 49.6221 119.713 49.6221C120.908 49.6221 121.877 48.6511 121.877 47.4534Z" fill="url(#paint76_linear_6484_9150)"/>
<path d="M116.559 32.2087L116.003 32.2087C114.767 32.2087 113.654 32.3946 112.665 32.6424C110.502 33.1381 108.833 34.1296 107.534 35.3688C103.455 39.2106 103.393 45.283 103.393 45.283L103.393 49.3726C103.393 49.4346 103.393 49.4965 103.393 49.5585L103.393 62.6328L103.949 62.6328C105.186 62.6328 106.298 62.4469 107.287 62.1991C109.451 61.7034 111.12 60.7119 112.418 59.4727C116.498 55.6309 116.559 49.5585 116.559 49.5585L116.559 45.4689C116.559 45.4069 116.559 45.345 116.559 45.283L116.559 32.2087Z" fill="url(#paint77_linear_6484_9150)"/>
<path d="M135.967 32.2097L135.411 32.2097C134.175 32.2097 133.062 32.3956 132.073 32.6434C129.909 33.1391 128.24 34.1306 126.942 35.3698C122.863 39.2116 122.801 45.284 122.801 45.284L122.801 49.3736C122.801 49.4355 122.801 49.4975 122.801 49.5595L122.801 62.6338L123.357 62.6338C124.593 62.6338 125.706 62.4479 126.695 62.2C128.859 61.7043 130.528 60.7129 131.826 59.4736C135.905 55.6319 135.967 49.5595 135.967 49.5595L135.967 45.4699C135.967 45.4079 135.967 45.346 135.967 45.284L135.967 32.2097Z" fill="url(#paint78_linear_6484_9150)"/>
<path d="M168.672 124.04L168.672 27.5008L172.072 27.5008L172.072 124.04L168.672 124.04Z" fill="url(#paint79_linear_6484_9150)"/>
<path d="M161.378 124.04L161.378 27.5008L164.839 27.5008L164.839 124.04L161.378 124.04Z" fill="url(#paint80_linear_6484_9150)"/>
<path d="M154.146 124.04L154.146 27.5008L157.545 27.5008L157.545 124.04L154.146 124.04Z" fill="url(#paint81_linear_6484_9150)"/>
<path d="M146.851 124.04L146.851 27.5008L150.251 27.5008L150.251 124.04L146.851 124.04Z" fill="url(#paint82_linear_6484_9150)"/>
<path d="M139.556 124.039L139.556 27.4998L143.018 27.4998L143.018 124.039L139.556 124.039Z" fill="url(#paint83_linear_6484_9150)"/>
<path d="M82.9292 175.718L82.9292 173.302C82.9292 166.486 87.7507 160.475 95.1684 156.943C95.2302 156.881 95.3538 156.881 95.4157 156.881C96.5283 156.448 97.7028 156.076 98.9391 155.828C101.659 155.146 104.564 154.713 107.655 154.713L159.517 154.713L159.517 194.493L119.832 194.493C110.993 194.493 104.193 194.183 99.0009 193.378C97.7646 193.068 96.5901 192.696 95.4775 192.324C95.4157 192.324 95.292 192.262 95.2302 192.262C87.7507 188.545 82.9292 182.534 82.9292 175.718Z" fill="url(#paint84_linear_6484_9150)"/>
<path d="M116.249 164.192L126.572 174.54L116.249 184.826L105.988 174.54L116.249 164.192Z" fill="url(#paint85_linear_6484_9150)"/>
<path d="M97.7048 168.344L103.886 174.54L97.7048 180.736L91.5234 174.54L97.7048 168.344Z" fill="url(#paint86_linear_6484_9150)"/>
<path d="M84.1681 170.451L88.2478 174.54L84.1681 178.63L80.0884 174.54L84.1681 170.451Z" fill="url(#paint87_linear_6484_9150)"/>
<path d="M177.816 174.541C177.816 169.887 174.052 166.114 169.409 166.114C164.766 166.114 161.002 169.887 161.002 174.541C161.002 179.195 164.766 182.968 169.409 182.968C174.052 182.968 177.816 179.195 177.816 174.541Z" stroke="#F7EDF6" stroke-width="2.0258" stroke-miterlimit="10"/>
<path d="M77.3064 154.093L-19 154.093L-19 150.685L77.3064 150.685L77.3064 154.093Z" fill="url(#paint88_linear_6484_9150)"/>
<path d="M77.3064 161.404L-19 161.404L-19 157.996L77.3064 157.996L77.3064 161.404Z" fill="url(#paint89_linear_6484_9150)"/>
<path d="M77.3064 168.654L-19 168.654L-19 165.246L77.3064 165.246L77.3064 168.654Z" fill="url(#paint90_linear_6484_9150)"/>
<path d="M77.3064 175.966L-19 175.966L-19 172.558L77.3064 172.558L77.3064 175.966Z" fill="url(#paint91_linear_6484_9150)"/>
<path d="M77.3064 183.278L-19 183.278L-19 179.87L77.3064 179.87L77.3064 183.278Z" fill="url(#paint92_linear_6484_9150)"/>
<path d="M77.3064 190.527L-19 190.527L-19 187.119L77.3064 187.119L77.3064 190.527Z" fill="url(#paint93_linear_6484_9150)"/>
</g>
<defs>
<linearGradient id="paint0_linear_6484_9150" x1="172.001" y1="245.424" x2="172.001" y2="146.136" gradientUnits="userSpaceOnUse">
<stop stop-color="#008F97"/>
<stop offset="1" stop-color="#00A3AB"/>
</linearGradient>
<linearGradient id="paint1_linear_6484_9150" x1="47.3373" y1="336.554" x2="47.3373" y2="288.604" gradientUnits="userSpaceOnUse">
<stop stop-color="#DAB000"/>
<stop offset="1" stop-color="#FCEA00"/>
</linearGradient>
<linearGradient id="paint2_linear_6484_9150" x1="68.4395" y1="146.012" x2="68.4395" y2="118.065" gradientUnits="userSpaceOnUse">
<stop stop-color="#543A4C"/>
<stop offset="1" stop-color="#744468"/>
</linearGradient>
<linearGradient id="paint3_linear_6484_9150" x1="179.441" y1="208.576" x2="141.231" y2="246.694" gradientUnits="userSpaceOnUse">
<stop stop-color="#F7EDF6"/>
<stop offset="1" stop-color="#E0DAA0"/>
</linearGradient>
<linearGradient id="paint4_linear_6484_9150" x1="147.859" y1="228.579" x2="174.972" y2="228.579" gradientUnits="userSpaceOnUse">
<stop stop-color="#543A4C"/>
<stop offset="1" stop-color="#744468"/>
</linearGradient>
<linearGradient id="paint5_linear_6484_9150" x1="159.244" y1="228.579" x2="178.285" y2="228.579" gradientUnits="userSpaceOnUse">
<stop stop-color="#EA523D"/>
<stop offset="1" stop-color="#EC665C"/>
</linearGradient>
<linearGradient id="paint6_linear_6484_9150" x1="138.793" y1="282.594" x2="97.3909" y2="282.594" gradientUnits="userSpaceOnUse">
<stop stop-color="#EA523D"/>
<stop offset="1" stop-color="#EC665C"/>
</linearGradient>
<linearGradient id="paint7_linear_6484_9150" x1="139.706" y1="288.415" x2="101.496" y2="250.297" gradientUnits="userSpaceOnUse">
<stop stop-color="#DAB000"/>
<stop offset="1" stop-color="#FCEA00"/>
</linearGradient>
<linearGradient id="paint8_linear_6484_9150" x1="139.682" y1="248.558" x2="112.05" y2="220.992" gradientUnits="userSpaceOnUse">
<stop stop-color="#F7EDF6"/>
<stop offset="1" stop-color="#E0DAA0"/>
</linearGradient>
<linearGradient id="paint9_linear_6484_9150" x1="139.583" y1="268.413" x2="179.321" y2="268.413" gradientUnits="userSpaceOnUse">
<stop stop-color="#008F97"/>
<stop offset="1" stop-color="#00A3AB"/>
</linearGradient>
<linearGradient id="paint10_linear_6484_9150" x1="119.735" y1="317.131" x2="119.735" y2="290.298" gradientUnits="userSpaceOnUse">
<stop stop-color="#DAB000"/>
<stop offset="1" stop-color="#FCEA00"/>
</linearGradient>
<linearGradient id="paint11_linear_6484_9150" x1="139.584" y1="302.511" x2="179.322" y2="302.511" gradientUnits="userSpaceOnUse">
<stop stop-color="#DAB000"/>
<stop offset="1" stop-color="#FCEA00"/>
</linearGradient>
<linearGradient id="paint12_linear_6484_9150" x1="111.802" y1="255.637" x2="75.8948" y2="291.457" gradientUnits="userSpaceOnUse">
<stop stop-color="#F7EDF6"/>
<stop offset="1" stop-color="#E0DAA0"/>
</linearGradient>
<linearGradient id="paint13_linear_6484_9150" x1="108.491" y1="252.317" x2="72.5847" y2="288.137" gradientUnits="userSpaceOnUse">
<stop stop-color="#F7EDF6"/>
<stop offset="1" stop-color="#E0DAA0"/>
</linearGradient>
<linearGradient id="paint14_linear_6484_9150" x1="105.176" y1="248.997" x2="69.2692" y2="284.817" gradientUnits="userSpaceOnUse">
<stop stop-color="#F7EDF6"/>
<stop offset="1" stop-color="#E0DAA0"/>
</linearGradient>
<linearGradient id="paint15_linear_6484_9150" x1="101.866" y1="245.676" x2="65.9588" y2="281.496" gradientUnits="userSpaceOnUse">
<stop stop-color="#F7EDF6"/>
<stop offset="1" stop-color="#E0DAA0"/>
</linearGradient>
<linearGradient id="paint16_linear_6484_9150" x1="98.551" y1="242.356" x2="62.6441" y2="278.176" gradientUnits="userSpaceOnUse">
<stop stop-color="#F7EDF6"/>
<stop offset="1" stop-color="#E0DAA0"/>
</linearGradient>
<linearGradient id="paint17_linear_6484_9150" x1="95.2408" y1="239.035" x2="59.334" y2="274.855" gradientUnits="userSpaceOnUse">
<stop stop-color="#F7EDF6"/>
<stop offset="1" stop-color="#E0DAA0"/>
</linearGradient>
<linearGradient id="paint18_linear_6484_9150" x1="162.117" y1="338.772" x2="162.117" y2="341.884" gradientUnits="userSpaceOnUse">
<stop stop-color="#543A4C"/>
<stop offset="1" stop-color="#744468"/>
</linearGradient>
<linearGradient id="paint19_linear_6484_9150" x1="162.117" y1="332.132" x2="162.117" y2="335.244" gradientUnits="userSpaceOnUse">
<stop stop-color="#543A4C"/>
<stop offset="1" stop-color="#744468"/>
</linearGradient>
<linearGradient id="paint20_linear_6484_9150" x1="162.117" y1="325.492" x2="162.117" y2="328.604" gradientUnits="userSpaceOnUse">
<stop stop-color="#543A4C"/>
<stop offset="1" stop-color="#744468"/>
</linearGradient>
<linearGradient id="paint21_linear_6484_9150" x1="162.117" y1="318.851" x2="162.117" y2="321.963" gradientUnits="userSpaceOnUse">
<stop stop-color="#543A4C"/>
<stop offset="1" stop-color="#744468"/>
</linearGradient>
<linearGradient id="paint22_linear_6484_9150" x1="142.575" y1="282.061" x2="142.575" y2="288.602" gradientUnits="userSpaceOnUse">
<stop stop-color="#F7EDF6"/>
<stop offset="1" stop-color="#E0DAA0"/>
</linearGradient>
<linearGradient id="paint23_linear_6484_9150" x1="146.195" y1="279.675" x2="146.195" y2="283.33" gradientUnits="userSpaceOnUse">
<stop stop-color="#EA523D"/>
<stop offset="1" stop-color="#EC665C"/>
</linearGradient>
<linearGradient id="paint24_linear_6484_9150" x1="149.052" y1="277.496" x2="149.052" y2="279.779" gradientUnits="userSpaceOnUse">
<stop stop-color="#F7EDF6"/>
<stop offset="1" stop-color="#E0DAA0"/>
</linearGradient>
<linearGradient id="paint25_linear_6484_9150" x1="151.146" y1="276.147" x2="151.146" y2="277.184" gradientUnits="userSpaceOnUse">
<stop stop-color="#EA523D"/>
<stop offset="1" stop-color="#EC665C"/>
</linearGradient>
<linearGradient id="paint26_linear_6484_9150" x1="169.832" y1="259.304" x2="169.832" y2="257.021" gradientUnits="userSpaceOnUse">
<stop stop-color="#F7EDF6"/>
<stop offset="1" stop-color="#E0DAA0"/>
</linearGradient>
<linearGradient id="paint27_linear_6484_9150" x1="167.738" y1="260.652" x2="167.738" y2="259.615" gradientUnits="userSpaceOnUse">
<stop stop-color="#EA523D"/>
<stop offset="1" stop-color="#EC665C"/>
</linearGradient>
<linearGradient id="paint28_linear_6484_9150" x1="142.615" y1="254.738" x2="142.615" y2="248.198" gradientUnits="userSpaceOnUse">
<stop stop-color="#F7EDF6"/>
<stop offset="1" stop-color="#E0DAA0"/>
</linearGradient>
<linearGradient id="paint29_linear_6484_9150" x1="146.235" y1="257.124" x2="146.235" y2="253.469" gradientUnits="userSpaceOnUse">
<stop stop-color="#EA523D"/>
<stop offset="1" stop-color="#EC665C"/>
</linearGradient>
<linearGradient id="paint30_linear_6484_9150" x1="149.092" y1="259.304" x2="149.092" y2="257.021" gradientUnits="userSpaceOnUse">
<stop stop-color="#F7EDF6"/>
<stop offset="1" stop-color="#E0DAA0"/>
</linearGradient>
<linearGradient id="paint31_linear_6484_9150" x1="151.186" y1="260.652" x2="151.186" y2="259.615" gradientUnits="userSpaceOnUse">
<stop stop-color="#EA523D"/>
<stop offset="1" stop-color="#EC665C"/>
</linearGradient>
<linearGradient id="paint32_linear_6484_9150" x1="168.516" y1="278.816" x2="170.793" y2="278.816" gradientUnits="userSpaceOnUse">
<stop stop-color="#F7EDF6"/>
<stop offset="1" stop-color="#E0DAA0"/>
</linearGradient>
<linearGradient id="paint33_linear_6484_9150" x1="167.171" y1="276.716" x2="168.206" y2="276.716" gradientUnits="userSpaceOnUse">
<stop stop-color="#EA523D"/>
<stop offset="1" stop-color="#EC665C"/>
</linearGradient>
<linearGradient id="paint34_linear_6484_9150" x1="101.787" y1="279.932" x2="101.787" y2="256.892" gradientUnits="userSpaceOnUse">
<stop stop-color="#543A4C"/>
<stop offset="1" stop-color="#744468"/>
</linearGradient>
<linearGradient id="paint35_linear_6484_9150" x1="119.949" y1="276.586" x2="119.949" y2="260.24" gradientUnits="userSpaceOnUse">
<stop stop-color="#543A4C"/>
<stop offset="1" stop-color="#744468"/>
</linearGradient>
<linearGradient id="paint36_linear_6484_9150" x1="85.1836" y1="275.997" x2="85.1836" y2="260.827" gradientUnits="userSpaceOnUse">
<stop stop-color="#543A4C"/>
<stop offset="1" stop-color="#744468"/>
</linearGradient>
<linearGradient id="paint37_linear_6484_9150" x1="119.353" y1="238.538" x2="139.62" y2="238.538" gradientUnits="userSpaceOnUse">
<stop stop-color="#EA523D"/>
<stop offset="1" stop-color="#EC665C"/>
</linearGradient>
<linearGradient id="paint38_linear_6484_9150" x1="99.8829" y1="228.579" x2="139.621" y2="228.579" gradientUnits="userSpaceOnUse">
<stop stop-color="#DAB000"/>
<stop offset="1" stop-color="#FCEA00"/>
</linearGradient>
<linearGradient id="paint39_linear_6484_9150" x1="139.682" y1="316.631" x2="112.05" y2="344.197" gradientUnits="userSpaceOnUse">
<stop stop-color="#F7EDF6"/>
<stop offset="1" stop-color="#E0DAA0"/>
</linearGradient>
<linearGradient id="paint40_linear_6484_9150" x1="89.9466" y1="356.527" x2="89.9466" y2="336.212" gradientUnits="userSpaceOnUse">
<stop stop-color="#008F97"/>
<stop offset="1" stop-color="#00A3AB"/>
</linearGradient>
<linearGradient id="paint41_linear_6484_9150" x1="119.751" y1="356.527" x2="119.751" y2="316.693" gradientUnits="userSpaceOnUse">
<stop stop-color="#543A4C"/>
<stop offset="1" stop-color="#744468"/>
</linearGradient>
<linearGradient id="paint42_linear_6484_9150" x1="173.509" y1="240.302" x2="173.509" y2="216.858" gradientUnits="userSpaceOnUse">
<stop stop-color="#F7EDF6"/>
<stop offset="1" stop-color="#E0DAA0"/>
</linearGradient>
<linearGradient id="paint43_linear_6484_9150" x1="170.764" y1="268.412" x2="147.998" y2="268.412" gradientUnits="userSpaceOnUse">
<stop stop-color="#EA523D"/>
<stop offset="1" stop-color="#EC665C"/>
</linearGradient>
<linearGradient id="paint44_linear_6484_9150" x1="156.799" y1="268.412" x2="169.713" y2="268.412" gradientUnits="userSpaceOnUse">
<stop stop-color="#F7EDF6"/>
<stop offset="1" stop-color="#E0DAA0"/>
</linearGradient>
<linearGradient id="paint45_linear_6484_9150" x1="86.5836" y1="95.897" x2="86.5836" y2="79.5296" gradientUnits="userSpaceOnUse">
<stop stop-color="#543A4C"/>
<stop offset="1" stop-color="#744468"/>
</linearGradient>
<linearGradient id="paint46_linear_6484_9150" x1="64.3854" y1="93.4173" x2="64.3854" y2="82.0094" gradientUnits="userSpaceOnUse">
<stop stop-color="#008F97"/>
<stop offset="1" stop-color="#00A3AB"/>
</linearGradient>
<linearGradient id="paint47_linear_6484_9150" x1="56.4257" y1="27.5784" x2="84.072" y2="-0.0012607" gradientUnits="userSpaceOnUse">
<stop stop-color="#F7EDF6"/>
<stop offset="1" stop-color="#E0DAA0"/>
</linearGradient>
<linearGradient id="paint48_linear_6484_9150" x1="66.4265" y1="7.19326" x2="66.4265" y2="27.5141" gradientUnits="userSpaceOnUse">
<stop stop-color="#EA523D"/>
<stop offset="1" stop-color="#EC665C"/>
</linearGradient>
<linearGradient id="paint49_linear_6484_9150" x1="76.367" y1="-12.3405" x2="76.367" y2="27.5141" gradientUnits="userSpaceOnUse">
<stop stop-color="#DAB000"/>
<stop offset="1" stop-color="#FCEA00"/>
</linearGradient>
<linearGradient id="paint50_linear_6484_9150" x1="205.916" y1="18.2828" x2="216.435" y2="18.7825" gradientUnits="userSpaceOnUse">
<stop stop-color="#F7EDF6"/>
<stop offset="1" stop-color="#E0DAA0"/>
</linearGradient>
<linearGradient id="paint51_linear_6484_9150" x1="56.4258" y1="27.4524" x2="84.072" y2="55.0321" gradientUnits="userSpaceOnUse">
<stop stop-color="#F7EDF6"/>
<stop offset="1" stop-color="#E0DAA0"/>
</linearGradient>
<linearGradient id="paint52_linear_6484_9150" x1="66.4265" y1="47.8375" x2="66.4265" y2="27.5166" gradientUnits="userSpaceOnUse">
<stop stop-color="#543A4C"/>
<stop offset="1" stop-color="#744468"/>
</linearGradient>
<linearGradient id="paint53_linear_6484_9150" x1="76.367" y1="67.3714" x2="76.367" y2="27.5167" gradientUnits="userSpaceOnUse">
<stop stop-color="#EA523D"/>
<stop offset="1" stop-color="#EC665C"/>
</linearGradient>
<linearGradient id="paint54_linear_6484_9150" x1="72.9595" y1="59.2959" x2="72.9595" y2="27.5163" gradientUnits="userSpaceOnUse">
<stop stop-color="#F7EDF6"/>
<stop offset="1" stop-color="#E0DAA0"/>
</linearGradient>
<linearGradient id="paint55_linear_6484_9150" x1="159.471" y1="-11.4863" x2="159.471" y2="30.0368" gradientUnits="userSpaceOnUse">
<stop stop-color="#EA523D"/>
<stop offset="1" stop-color="#EC665C"/>
</linearGradient>
<linearGradient id="paint56_linear_6484_9150" x1="179.397" y1="-12.3585" x2="151.77" y2="15.2022" gradientUnits="userSpaceOnUse">
<stop stop-color="#F7EDF6"/>
<stop offset="1" stop-color="#E0DAA0"/>
</linearGradient>
<linearGradient id="paint57_linear_6484_9150" x1="169.41" y1="8.01278" x2="169.41" y2="-12.2792" gradientUnits="userSpaceOnUse">
<stop stop-color="#543A4C"/>
<stop offset="1" stop-color="#744468"/>
</linearGradient>
<linearGradient id="paint58_linear_6484_9150" x1="159.47" y1="27.5181" x2="159.47" y2="-12.2802" gradientUnits="userSpaceOnUse">
<stop stop-color="#543A4C"/>
<stop offset="1" stop-color="#744468"/>
</linearGradient>
<linearGradient id="paint59_linear_6484_9150" x1="162.878" y1="19.455" x2="162.878" y2="-12.2819" gradientUnits="userSpaceOnUse">
<stop stop-color="#F7EDF6"/>
<stop offset="1" stop-color="#E0DAA0"/>
</linearGradient>
<linearGradient id="paint60_linear_6484_9150" x1="119.709" y1="107.194" x2="119.709" y2="67.4363" gradientUnits="userSpaceOnUse">
<stop stop-color="#543A4C"/>
<stop offset="1" stop-color="#744468"/>
</linearGradient>
<linearGradient id="paint61_linear_6484_9150" x1="125.356" y1="1.06081" x2="125.356" y2="0.0263615" gradientUnits="userSpaceOnUse">
<stop stop-color="#543A4C"/>
<stop offset="1" stop-color="#744468"/>
</linearGradient>
<linearGradient id="paint62_linear_6484_9150" x1="124.001" y1="2.08042" x2="124.001" y2="1.61018" gradientUnits="userSpaceOnUse">
<stop stop-color="#543A4C"/>
<stop offset="1" stop-color="#744468"/>
</linearGradient>
<linearGradient id="paint63_linear_6484_9150" x1="129.552" y1="16.659" x2="129.552" y2="19.623" gradientUnits="userSpaceOnUse">
<stop stop-color="#543A4C"/>
<stop offset="1" stop-color="#744468"/>
</linearGradient>
<linearGradient id="paint64_linear_6484_9150" x1="127.209" y1="14.8722" x2="127.209" y2="16.5288" gradientUnits="userSpaceOnUse">
<stop stop-color="#543A4C"/>
<stop offset="1" stop-color="#744468"/>
</linearGradient>
<linearGradient id="paint65_linear_6484_9150" x1="125.356" y1="13.3289" x2="125.356" y2="14.3634" gradientUnits="userSpaceOnUse">
<stop stop-color="#543A4C"/>
<stop offset="1" stop-color="#744468"/>
</linearGradient>
<linearGradient id="paint66_linear_6484_9150" x1="124.001" y1="12.31" x2="124.001" y2="12.7803" gradientUnits="userSpaceOnUse">
<stop stop-color="#543A4C"/>
<stop offset="1" stop-color="#744468"/>
</linearGradient>
<linearGradient id="paint67_linear_6484_9150" x1="111.813" y1="1.06081" x2="111.813" y2="0.0263615" gradientUnits="userSpaceOnUse">
<stop stop-color="#543A4C"/>
<stop offset="1" stop-color="#744468"/>
</linearGradient>
<linearGradient id="paint68_linear_6484_9150" x1="113.167" y1="2.08042" x2="113.167" y2="1.61018" gradientUnits="userSpaceOnUse">
<stop stop-color="#543A4C"/>
<stop offset="1" stop-color="#744468"/>
</linearGradient>
<linearGradient id="paint69_linear_6484_9150" x1="107.618" y1="16.659" x2="107.618" y2="19.623" gradientUnits="userSpaceOnUse">
<stop stop-color="#543A4C"/>
<stop offset="1" stop-color="#744468"/>
</linearGradient>
<linearGradient id="paint70_linear_6484_9150" x1="109.962" y1="14.8732" x2="109.962" y2="16.5298" gradientUnits="userSpaceOnUse">
<stop stop-color="#543A4C"/>
<stop offset="1" stop-color="#744468"/>
</linearGradient>
<linearGradient id="paint71_linear_6484_9150" x1="111.813" y1="13.3289" x2="111.813" y2="14.3634" gradientUnits="userSpaceOnUse">
<stop stop-color="#543A4C"/>
<stop offset="1" stop-color="#744468"/>
</linearGradient>
<linearGradient id="paint72_linear_6484_9150" x1="113.167" y1="12.31" x2="113.167" y2="12.7803" gradientUnits="userSpaceOnUse">
<stop stop-color="#543A4C"/>
<stop offset="1" stop-color="#744468"/>
</linearGradient>
<linearGradient id="paint73_linear_6484_9150" x1="121.193" y1="7.21438" x2="116.034" y2="7.21438" gradientUnits="userSpaceOnUse">
<stop stop-color="#543A4C"/>
<stop offset="1" stop-color="#744468"/>
</linearGradient>
<linearGradient id="paint74_linear_6484_9150" x1="184.615" y1="127.097" x2="102.775" y2="127.097" gradientUnits="userSpaceOnUse">
<stop stop-color="#DAB000"/>
<stop offset="1" stop-color="#FCEA00"/>
</linearGradient>
<linearGradient id="paint75_linear_6484_9150" x1="119.708" y1="28.3379" x2="119.708" y2="69.861" gradientUnits="userSpaceOnUse">
<stop stop-color="#EA523D"/>
<stop offset="1" stop-color="#EC665C"/>
</linearGradient>
<linearGradient id="paint76_linear_6484_9150" x1="119.711" y1="49.6185" x2="119.711" y2="45.2872" gradientUnits="userSpaceOnUse">
<stop stop-color="#543A4C"/>
<stop offset="1" stop-color="#744468"/>
</linearGradient>
<linearGradient id="paint77_linear_6484_9150" x1="109.933" y1="21.3368" x2="109.933" y2="66.3379" gradientUnits="userSpaceOnUse">
<stop stop-color="#F7EDF6"/>
<stop offset="1" stop-color="#E0DAA0"/>
</linearGradient>
<linearGradient id="paint78_linear_6484_9150" x1="129.34" y1="21.3378" x2="129.34" y2="66.3388" gradientUnits="userSpaceOnUse">
<stop stop-color="#F7EDF6"/>
<stop offset="1" stop-color="#E0DAA0"/>
</linearGradient>
<linearGradient id="paint79_linear_6484_9150" x1="170.384" y1="124.044" x2="170.384" y2="27.5161" gradientUnits="userSpaceOnUse">
<stop stop-color="#F7EDF6"/>
<stop offset="1" stop-color="#E0DAA0"/>
</linearGradient>
<linearGradient id="paint80_linear_6484_9150" x1="163.109" y1="124.044" x2="163.109" y2="27.5161" gradientUnits="userSpaceOnUse">
<stop stop-color="#F7EDF6"/>
<stop offset="1" stop-color="#E0DAA0"/>
</linearGradient>
<linearGradient id="paint81_linear_6484_9150" x1="155.835" y1="124.044" x2="155.835" y2="27.5161" gradientUnits="userSpaceOnUse">
<stop stop-color="#F7EDF6"/>
<stop offset="1" stop-color="#E0DAA0"/>
</linearGradient>
<linearGradient id="paint82_linear_6484_9150" x1="148.56" y1="124.044" x2="148.56" y2="27.5161" gradientUnits="userSpaceOnUse">
<stop stop-color="#F7EDF6"/>
<stop offset="1" stop-color="#E0DAA0"/>
</linearGradient>
<linearGradient id="paint83_linear_6484_9150" x1="141.285" y1="124.043" x2="141.285" y2="27.5151" gradientUnits="userSpaceOnUse">
<stop stop-color="#F7EDF6"/>
<stop offset="1" stop-color="#E0DAA0"/>
</linearGradient>
<linearGradient id="paint84_linear_6484_9150" x1="159.488" y1="174.537" x2="82.9045" y2="174.537" gradientUnits="userSpaceOnUse">
<stop stop-color="#EA523D"/>
<stop offset="1" stop-color="#EC665C"/>
</linearGradient>
<linearGradient id="paint85_linear_6484_9150" x1="116.264" y1="184.857" x2="116.264" y2="164.216" gradientUnits="userSpaceOnUse">
<stop stop-color="#543A4C"/>
<stop offset="1" stop-color="#744468"/>
</linearGradient>
<linearGradient id="paint86_linear_6484_9150" x1="97.7091" y1="180.729" x2="97.7091" y2="168.343" gradientUnits="userSpaceOnUse">
<stop stop-color="#543A4C"/>
<stop offset="1" stop-color="#744468"/>
</linearGradient>
<linearGradient id="paint87_linear_6484_9150" x1="84.1646" y1="178.612" x2="84.1646" y2="170.461" gradientUnits="userSpaceOnUse">
<stop stop-color="#543A4C"/>
<stop offset="1" stop-color="#744468"/>
</linearGradient>
<linearGradient id="paint88_linear_6484_9150" x1="77.2954" y1="152.385" x2="-19" y2="152.385" gradientUnits="userSpaceOnUse">
<stop stop-color="#F7EDF6"/>
<stop offset="1" stop-color="#E0DAA0"/>
</linearGradient>
<linearGradient id="paint89_linear_6484_9150" x1="77.2954" y1="159.676" x2="-19" y2="159.676" gradientUnits="userSpaceOnUse">
<stop stop-color="#F7EDF6"/>
<stop offset="1" stop-color="#E0DAA0"/>
</linearGradient>
<linearGradient id="paint90_linear_6484_9150" x1="77.2954" y1="166.968" x2="-19" y2="166.968" gradientUnits="userSpaceOnUse">
<stop stop-color="#F7EDF6"/>
<stop offset="1" stop-color="#E0DAA0"/>
</linearGradient>
<linearGradient id="paint91_linear_6484_9150" x1="77.2954" y1="174.26" x2="-19" y2="174.26" gradientUnits="userSpaceOnUse">
<stop stop-color="#F7EDF6"/>
<stop offset="1" stop-color="#E0DAA0"/>
</linearGradient>
<linearGradient id="paint92_linear_6484_9150" x1="77.2954" y1="181.553" x2="-19" y2="181.553" gradientUnits="userSpaceOnUse">
<stop stop-color="#F7EDF6"/>
<stop offset="1" stop-color="#E0DAA0"/>
</linearGradient>
<linearGradient id="paint93_linear_6484_9150" x1="77.2954" y1="188.844" x2="-19" y2="188.844" gradientUnits="userSpaceOnUse">
<stop stop-color="#F7EDF6"/>
<stop offset="1" stop-color="#E0DAA0"/>
</linearGradient>
</defs>
</svg>
